<svg width="84" height="51" viewBox="0 0 84 51" fill="none" xmlns="http://www.w3.org/2000/svg">
<path d="M16.493 18.4445C18.0676 18.4445 19.344 17.1675 19.344 15.5923C19.344 14.0171 18.0676 12.7401 16.493 12.7401C14.9185 12.7401 13.6421 14.0171 13.6421 15.5923C13.6421 17.1675 14.9185 18.4445 16.493 18.4445Z" fill="#61DAFB"/>
<path d="M32.4861 15.5922C32.4861 13.3522 29.8577 11.4044 25.769 10.2357C26.7981 6.10352 26.4365 2.84787 24.4896 1.73483C22.5426 0.60787 19.5526 1.92961 16.493 4.87917C13.4335 1.9157 10.4435 0.60787 8.49652 1.73483C6.88331 2.667 6.28531 5.03222 6.82768 8.39917C6.92503 8.99744 7.0641 9.60961 7.21708 10.2496C3.12842 11.4183 0.5 13.3661 0.5 15.6061C0.5 17.8461 3.12842 19.78 7.21708 20.9627C7.0641 21.5887 6.92503 22.2148 6.82768 22.8131C6.28531 26.18 6.88331 28.5453 8.49652 29.4774C8.96936 29.7557 9.51173 29.8948 10.1097 29.8948C11.5282 29.8948 13.2388 29.1157 15.1023 27.5992C15.5613 27.2235 16.0341 26.7922 16.493 26.347C16.952 26.7922 17.4248 27.2235 17.8837 27.5992C19.7473 29.1157 21.4578 29.8948 22.8764 29.8948C23.4744 29.8948 24.0167 29.7557 24.4896 29.4774C26.1028 28.5453 26.7008 26.18 26.1723 22.8131C26.075 22.2148 25.9359 21.6027 25.7829 20.9627C29.8716 19.794 32.5 17.8461 32.5 15.6061L32.4861 15.5922ZM23.7942 2.93135C25.0458 3.65483 25.324 6.2983 24.42 9.88787C23.1128 9.58178 21.6804 9.35917 20.1645 9.22004C19.2884 7.98178 18.3705 6.85483 17.4665 5.867C19.5804 3.82178 21.5413 2.70874 22.8903 2.70874C23.2379 2.70874 23.5439 2.7783 23.8081 2.93135H23.7942ZM20.9572 18.1661C20.4565 19.0148 19.942 19.8496 19.4135 20.6287C18.4817 20.6983 17.5083 20.74 16.507 20.74C15.5056 20.74 14.5322 20.6983 13.6004 20.6287C13.0719 19.8496 12.5435 19.0148 12.0567 18.1661C11.5561 17.3035 11.111 16.4548 10.6938 15.5922C11.111 14.7296 11.5561 13.8809 12.0567 13.0183C12.5574 12.1418 13.0858 11.3209 13.6004 10.5557C14.5322 10.4861 15.5056 10.4444 16.507 10.4444C17.5083 10.4444 18.4817 10.4861 19.4135 10.5557C19.942 11.3209 20.4565 12.1418 20.9572 13.0183C21.4439 13.867 21.9029 14.7296 22.3201 15.5922C21.9168 16.4409 21.4718 17.2896 20.9572 18.1661ZM23.0432 17.22C23.4326 18.1522 23.7664 19.0566 24.0445 19.947C23.1545 20.1418 22.1949 20.3227 21.1797 20.4479C21.5135 19.9331 21.8333 19.4044 22.1532 18.8618C22.4731 18.3192 22.7651 17.7627 23.0432 17.22ZM16.493 24.3157C15.8672 23.634 15.2414 22.8827 14.6295 22.0757C15.2414 22.1035 15.8533 22.1174 16.493 22.1174C17.1328 22.1174 17.7447 22.1035 18.3566 22.0757C17.7447 22.8827 17.1189 23.62 16.493 24.3157ZM11.8064 20.4479C10.7912 20.3227 9.83159 20.1557 8.94155 19.947C9.21969 19.0566 9.55345 18.1522 9.94285 17.22C10.221 17.7627 10.513 18.3192 10.8329 18.8618C11.1528 19.4044 11.4726 19.9331 11.8064 20.4479ZM9.94285 13.9505C9.55345 13.0183 9.21969 12.114 8.94155 11.2235C9.83159 11.0287 10.7912 10.8479 11.8064 10.7227C11.4726 11.2374 11.1528 11.7661 10.8329 12.3087C10.513 12.8513 10.221 13.394 9.94285 13.9505ZM16.493 6.85483C17.105 7.52265 17.7308 8.27396 18.3566 9.09483C17.7447 9.067 17.1328 9.05309 16.493 9.05309C15.8533 9.05309 15.2414 9.067 14.6295 9.09483C15.2553 8.27396 15.8672 7.52265 16.493 6.85483ZM22.1532 12.3227C21.8333 11.78 21.5135 11.2513 21.1797 10.7366C22.1949 10.8618 23.1545 11.0287 24.0445 11.2374C23.7803 12.114 23.4465 13.0183 23.0432 13.9644C22.7651 13.4218 22.4591 12.8653 22.1532 12.3227ZM8.19057 8.17657C7.75945 5.46352 8.12103 3.55744 9.19187 2.94526C9.45611 2.79222 9.76206 2.72265 10.1097 2.72265C11.4587 2.72265 13.4196 3.8357 15.5335 5.88091C14.6156 6.86874 13.7116 7.9957 12.8355 9.23396C11.3196 9.37309 9.88722 9.5957 8.57996 9.90178C8.42699 9.31743 8.30183 8.73309 8.21838 8.19048L8.19057 8.17657ZM1.8907 15.5922C1.8907 14.1453 4.03238 12.587 7.59257 11.5713C7.99587 12.8653 8.52434 14.2148 9.15015 15.5922C8.52434 16.9557 7.99587 18.3053 7.59257 19.6131C4.04628 18.5974 1.8907 17.0531 1.8907 15.5922ZM14.2262 26.4861C12.0984 28.2113 10.2627 28.8514 9.19187 28.2392C8.12103 27.627 7.75945 25.707 8.19057 23.0079C8.27401 22.4513 8.41308 21.8809 8.55215 21.2966C9.85941 21.6027 11.2918 21.8253 12.8077 21.9644C13.6838 23.1887 14.5878 24.3296 15.5056 25.3314C15.0745 25.7487 14.6434 26.1522 14.2123 26.5L14.2262 26.4861ZM24.7955 23.0079C25.2266 25.7209 24.8651 27.627 23.7942 28.2392C22.7234 28.8514 20.8877 28.2113 18.7599 26.4861C18.3288 26.1383 17.8977 25.7348 17.4665 25.3174C18.3983 24.3157 19.3023 23.1887 20.1645 21.9644C21.6804 21.8253 23.1128 21.6027 24.42 21.2966C24.573 21.8809 24.6982 22.4653 24.7816 23.0079H24.7955ZM25.3935 19.5992C24.9902 18.3053 24.4618 16.9557 23.8359 15.5783C24.4757 14.187 24.9902 12.8374 25.3935 11.5574C28.9537 12.5731 31.0954 14.1174 31.0954 15.5783C31.0954 17.0392 28.9537 18.5835 25.3935 19.5992Z" fill="#61DAFB"/>
<path d="M1.5203 47V39.212H4.4003C5.3323 39.212 6.0463 39.43 6.5423 39.866C7.0423 40.302 7.2923 40.88 7.2923 41.6C7.2923 42.308 7.0423 42.88 6.5423 43.316C6.0463 43.748 5.3323 43.964 4.4003 43.964H2.9363V47H1.5203ZM5.7323 47L3.6683 43.352H5.1803L7.5803 47H5.7323ZM2.9363 43.016H4.2563C4.7763 43.016 5.1703 42.898 5.4383 42.662C5.7063 42.422 5.8403 42.112 5.8403 41.732C5.8403 41.344 5.7183 41.032 5.4743 40.796C5.2303 40.556 4.8723 40.436 4.4003 40.436H2.9363V43.016ZM11.415 47.168C10.919 47.168 10.465 47.04 10.053 46.784C9.64095 46.528 9.31095 46.17 9.06295 45.71C8.81495 45.246 8.69095 44.704 8.69095 44.084C8.69095 43.444 8.81295 42.894 9.05695 42.434C9.30495 41.974 9.63495 41.622 10.047 41.378C10.459 41.134 10.915 41.012 11.415 41.012C11.879 41.012 12.279 41.106 12.615 41.294C12.955 41.478 13.227 41.73 13.431 42.05C13.639 42.366 13.779 42.724 13.851 43.124C13.923 43.524 13.927 43.936 13.863 44.36H9.81895V43.592H12.861L12.585 43.772C12.597 43.584 12.587 43.394 12.555 43.202C12.527 43.01 12.471 42.834 12.387 42.674C12.303 42.514 12.183 42.386 12.027 42.29C11.875 42.19 11.679 42.14 11.439 42.14C11.151 42.14 10.907 42.212 10.707 42.356C10.507 42.5 10.355 42.696 10.251 42.944C10.147 43.192 10.095 43.472 10.095 43.784V44.348C10.095 44.676 10.143 44.966 10.239 45.218C10.339 45.47 10.485 45.668 10.677 45.812C10.873 45.956 11.119 46.028 11.415 46.028C11.691 46.028 11.923 45.964 12.111 45.836C12.299 45.708 12.419 45.516 12.471 45.26H13.899C13.839 45.636 13.697 45.968 13.473 46.256C13.253 46.54 12.967 46.764 12.615 46.928C12.263 47.088 11.863 47.168 11.415 47.168ZM19.3142 47L19.1342 45.584V43.244C19.1342 42.836 19.0502 42.534 18.8822 42.338C18.7182 42.142 18.4382 42.044 18.0422 42.044C17.8142 42.044 17.6162 42.078 17.4482 42.146C17.2802 42.214 17.1502 42.312 17.0582 42.44C16.9702 42.564 16.9262 42.716 16.9262 42.896H15.3782C15.3782 42.456 15.4842 42.098 15.6962 41.822C15.9082 41.542 16.2122 41.338 16.6082 41.21C17.0082 41.078 17.4862 41.012 18.0422 41.012C18.5462 41.012 18.9862 41.094 19.3622 41.258C19.7382 41.418 20.0302 41.666 20.2382 42.002C20.4462 42.338 20.5502 42.768 20.5502 43.292V47H19.3142ZM17.4062 47.168C16.9062 47.168 16.4882 47.082 16.1522 46.91C15.8202 46.734 15.5702 46.504 15.4022 46.22C15.2342 45.936 15.1502 45.628 15.1502 45.296C15.1502 44.928 15.2462 44.62 15.4382 44.372C15.6342 44.12 15.9102 43.932 16.2662 43.808C16.6222 43.68 17.0422 43.616 17.5262 43.616C17.8422 43.616 18.1402 43.64 18.4202 43.688C18.7042 43.736 18.9862 43.8 19.2662 43.88V44.708C19.0462 44.636 18.8062 44.58 18.5462 44.54C18.2862 44.5 18.0422 44.48 17.8142 44.48C17.4782 44.48 17.2022 44.542 16.9862 44.666C16.7702 44.79 16.6622 45 16.6622 45.296C16.6622 45.512 16.7502 45.698 16.9262 45.854C17.1022 46.01 17.3822 46.088 17.7662 46.088C18.0582 46.088 18.3062 46.024 18.5102 45.896C18.7142 45.768 18.8682 45.608 18.9722 45.416C19.0802 45.224 19.1342 45.032 19.1342 44.84H19.4702C19.4702 45.26 19.3922 45.648 19.2362 46.004C19.0802 46.356 18.8482 46.638 18.5402 46.85C18.2362 47.062 17.8582 47.168 17.4062 47.168ZM24.8338 47.168C24.3458 47.168 23.8918 47.042 23.4718 46.79C23.0558 46.534 22.7178 46.176 22.4578 45.716C22.2018 45.252 22.0738 44.708 22.0738 44.084C22.0738 43.424 22.2018 42.866 22.4578 42.41C22.7178 41.95 23.0558 41.602 23.4718 41.366C23.8918 41.13 24.3458 41.012 24.8338 41.012C25.2138 41.012 25.5478 41.074 25.8358 41.198C26.1278 41.318 26.3758 41.482 26.5798 41.69C26.7838 41.894 26.9438 42.122 27.0598 42.374C27.1758 42.626 27.2498 42.88 27.2818 43.136L25.8538 43.172C25.7898 42.916 25.6698 42.704 25.4938 42.536C25.3218 42.368 25.0978 42.284 24.8218 42.284C24.5938 42.284 24.3798 42.348 24.1798 42.476C23.9798 42.6 23.8158 42.794 23.6878 43.058C23.5638 43.322 23.5018 43.664 23.5018 44.084C23.5018 44.484 23.5598 44.818 23.6758 45.086C23.7958 45.35 23.9558 45.55 24.1558 45.686C24.3558 45.818 24.5778 45.884 24.8218 45.884C25.1818 45.884 25.4438 45.798 25.6078 45.626C25.7718 45.45 25.8538 45.216 25.8538 44.924H27.2818C27.2818 45.336 27.1878 45.712 26.9998 46.052C26.8118 46.392 26.5358 46.664 26.1718 46.868C25.8078 47.068 25.3618 47.168 24.8338 47.168ZM30.9453 47.168C30.6013 47.168 30.2853 47.104 29.9973 46.976C29.7133 46.848 29.4853 46.652 29.3133 46.388C29.1453 46.124 29.0613 45.788 29.0613 45.38V39.632H30.4773V45.332C30.4773 45.812 30.7053 46.052 31.1613 46.052C31.3013 46.052 31.4413 46.036 31.5813 46.004C31.7213 45.972 31.8813 45.924 32.0613 45.86L32.2653 46.856C32.0413 46.944 31.8233 47.018 31.6113 47.078C31.3993 47.138 31.1773 47.168 30.9453 47.168ZM28.2453 42.116V41.18H32.0613V42.116H28.2453Z" fill="#3DCFB6"/>
<path d="M70.1951 2.66663L66.5006 9.06663L62.8049 2.66663H50.5L66.5006 30.3804L82.5 2.66663H70.1951Z" fill="#41B883"/>
<path d="M70.195 2.66663L66.5005 9.06663L62.8048 2.66663H56.8999L66.5005 19.2944L76.0999 2.66663H70.195Z" fill="#34495E"/>
<path d="M53.0185 45.452L55.0105 39.212H56.4985L53.8225 47H52.3345L49.6945 39.212H51.1945L53.1625 45.452H53.0185ZM61.701 41.156H63.117V47H61.701V41.156ZM57.705 41.156H59.121V44.732C59.121 45.112 59.215 45.398 59.403 45.59C59.591 45.778 59.849 45.872 60.177 45.872C60.457 45.872 60.711 45.8 60.939 45.656C61.171 45.508 61.355 45.292 61.491 45.008C61.631 44.72 61.701 44.364 61.701 43.94H62.085C62.085 44.652 61.993 45.242 61.809 45.71C61.625 46.178 61.371 46.528 61.047 46.76C60.723 46.992 60.349 47.108 59.925 47.108C59.509 47.108 59.133 47.034 58.797 46.886C58.461 46.738 58.195 46.5 57.999 46.172C57.803 45.844 57.705 45.412 57.705 44.876V41.156ZM67.5204 47.168C67.0244 47.168 66.5704 47.04 66.1584 46.784C65.7464 46.528 65.4164 46.17 65.1684 45.71C64.9204 45.246 64.7964 44.704 64.7964 44.084C64.7964 43.444 64.9184 42.894 65.1624 42.434C65.4104 41.974 65.7404 41.622 66.1524 41.378C66.5644 41.134 67.0204 41.012 67.5204 41.012C67.9844 41.012 68.3844 41.106 68.7204 41.294C69.0604 41.478 69.3324 41.73 69.5364 42.05C69.7444 42.366 69.8844 42.724 69.9564 43.124C70.0284 43.524 70.0324 43.936 69.9684 44.36H65.9244V43.592H68.9664L68.6904 43.772C68.7024 43.584 68.6924 43.394 68.6604 43.202C68.6324 43.01 68.5764 42.834 68.4924 42.674C68.4084 42.514 68.2884 42.386 68.1324 42.29C67.9804 42.19 67.7844 42.14 67.5444 42.14C67.2564 42.14 67.0124 42.212 66.8124 42.356C66.6124 42.5 66.4604 42.696 66.3564 42.944C66.2524 43.192 66.2004 43.472 66.2004 43.784V44.348C66.2004 44.676 66.2484 44.966 66.3444 45.218C66.4444 45.47 66.5904 45.668 66.7824 45.812C66.9784 45.956 67.2244 46.028 67.5204 46.028C67.7964 46.028 68.0284 45.964 68.2164 45.836C68.4044 45.708 68.5244 45.516 68.5764 45.26H70.0044C69.9444 45.636 69.8024 45.968 69.5784 46.256C69.3584 46.54 69.0724 46.764 68.7204 46.928C68.3684 47.088 67.9684 47.168 67.5204 47.168ZM70.8837 46.172C70.8837 45.9 70.9757 45.672 71.1597 45.488C71.3437 45.304 71.5797 45.212 71.8677 45.212C72.1557 45.212 72.3957 45.304 72.5877 45.488C72.7797 45.672 72.8757 45.9 72.8757 46.172C72.8757 46.44 72.7797 46.664 72.5877 46.844C72.3957 47.02 72.1557 47.108 71.8677 47.108C71.5797 47.108 71.3437 47.018 71.1597 46.838C70.9757 46.658 70.8837 46.436 70.8837 46.172ZM75.1898 40.112C74.9218 40.112 74.7078 40.04 74.5478 39.896C74.3918 39.748 74.3138 39.544 74.3138 39.284C74.3138 39.032 74.3918 38.832 74.5478 38.684C74.7078 38.532 74.9218 38.456 75.1898 38.456C75.4618 38.456 75.6758 38.532 75.8318 38.684C75.9878 38.832 76.0658 39.032 76.0658 39.284C76.0658 39.544 75.9878 39.748 75.8318 39.896C75.6758 40.04 75.4618 40.112 75.1898 40.112ZM73.9418 50.012C73.6298 50.012 73.3418 49.978 73.0778 49.91C72.8098 49.842 72.5378 49.752 72.2618 49.64L72.2858 48.416C72.4898 48.516 72.7058 48.6 72.9338 48.668C73.1578 48.74 73.3778 48.776 73.5938 48.776C73.8858 48.776 74.1078 48.692 74.2598 48.524C74.4158 48.356 74.4938 48.072 74.4938 47.672V41.156H75.9098V47.696C75.9098 48.528 75.7358 49.122 75.3878 49.478C75.0438 49.834 74.5618 50.012 73.9418 50.012ZM80.4814 47.168C79.9214 47.168 79.4394 47.092 79.0354 46.94C78.6354 46.784 78.3274 46.562 78.1114 46.274C77.8954 45.982 77.7854 45.632 77.7814 45.224H79.0894C79.1014 45.512 79.2154 45.722 79.4314 45.854C79.6474 45.986 79.9414 46.052 80.3134 46.052C80.5174 46.052 80.6974 46.022 80.8534 45.962C81.0134 45.902 81.1374 45.82 81.2254 45.716C81.3134 45.612 81.3574 45.496 81.3574 45.368C81.3574 45.204 81.2974 45.076 81.1774 44.984C81.0614 44.888 80.8734 44.8 80.6134 44.72L79.3414 44.264C78.8854 44.1 78.5354 43.884 78.2914 43.616C78.0474 43.348 77.9254 43.028 77.9254 42.656C77.9254 42.164 78.1474 41.768 78.5914 41.468C79.0394 41.164 79.6374 41.012 80.3854 41.012C81.1294 41.012 81.7034 41.176 82.1074 41.504C82.5154 41.828 82.7254 42.24 82.7374 42.74H81.4054C81.3854 42.548 81.2934 42.396 81.1294 42.284C80.9654 42.172 80.7174 42.116 80.3854 42.116C80.0854 42.116 79.8494 42.178 79.6774 42.302C79.5094 42.422 79.4254 42.564 79.4254 42.728C79.4254 43.004 79.6614 43.212 80.1334 43.352L81.5134 43.868C81.9614 44.02 82.3094 44.216 82.5574 44.456C82.8054 44.696 82.9294 45 82.9294 45.368C82.9294 45.676 82.8254 45.968 82.6174 46.244C82.4134 46.516 82.1274 46.738 81.7594 46.91C81.3914 47.082 80.9654 47.168 80.4814 47.168Z" fill="#3DCFB6"/>
</svg>
