<?xml version="1.0" encoding="UTF-8"?>
<svg viewBox="0 0 1080 900" xmlns="http://www.w3.org/2000/svg">
  <style>
    path { fill: #3DCFB6; }
    @media (prefers-color-scheme: dark) {
      path { fill: #FFFFFF; }
    }
  </style>
<path class="assets/img/icons/favicon.css" d="M0 0 C0.77079726 18.42145945 1.14932973 36.8013926 1.14717102 55.23866272 C1.15048195 57.8571328 1.15421002 60.47560237 1.1583125 63.09407133 C1.16750301 69.46318725 1.17153711 75.83229625 1.17383147 82.20141797 C1.17682937 89.84873199 1.18554643 97.49603714 1.19424575 105.14334642 C1.21493948 123.60632154 1.22553336 142.0692981 1.23437535 160.53228209 C1.23860087 169.28453203 1.24381997 178.0367813 1.24905988 186.78903069 C1.26693107 216.81515545 1.28192479 246.84128043 1.28938007 276.86740971 C1.28985481 278.74684919 1.2903307 280.62628867 1.29080774 282.50572815 C1.2911623 283.9035846 1.2911623 283.9035846 1.29152403 285.32968057 C1.29272506 290.05010931 1.29394057 294.77053806 1.29516602 299.4909668 C1.29540617 300.42769452 1.29564632 301.36442225 1.29589374 302.32953567 C1.30378567 332.6964357 1.32722511 363.06329667 1.35972196 393.43017965 C1.39410971 425.62336968 1.41373903 457.81653686 1.41702431 490.00974554 C1.41744178 493.55116396 1.41792133 497.09258237 1.41844749 500.63400078 C1.41857069 501.50583952 1.41869388 502.37767826 1.4188208 503.27593635 C1.42114066 517.22988025 1.43673088 531.18377821 1.45728934 545.1377058 C1.47766143 559.18903093 1.48297112 573.24030158 1.47351871 587.29163874 C1.4687995 594.88489574 1.47028679 602.47801706 1.49028015 610.07125282 C1.6862643 687.90746931 1.6862643 687.90746931 -9 721 C-9.25620117 721.81243164 -9.51240234 722.62486328 -9.77636719 723.46191406 C-18.31077908 750.00746873 -34.58587979 780.47990967 -56.70703125 798.1640625 C-59.07197435 799.79504786 -59.07197435 799.79504786 -60 802 C-60.66 802 -61.32 802 -62 802 C-62 802.66 -62 803.32 -62 804 C-63.92359796 805.64922897 -65.84624247 807.1771715 -67.875 808.6875 C-68.4721582 809.13665771 -69.06931641 809.58581543 -69.68457031 810.04858398 C-70.89549988 810.95548397 -72.10903202 811.85891972 -73.32519531 812.75878906 C-74.72244182 813.79429945 -76.10872732 814.84457911 -77.4921875 815.8984375 C-124.43541429 850.49673268 -183.80559261 850.37951125 -239.41650391 850.26074219 C-244.78983061 850.24936319 -250.16295883 850.25612022 -255.53627872 850.26761913 C-275.13188766 850.30322636 -294.70299115 850.26434687 -314.26953125 849.09765625 C-315.28332918 849.03820957 -315.28332918 849.03820957 -316.31760788 848.97756195 C-328.7176822 848.2250433 -340.84302343 846.52606755 -353 844 C-354.29357422 843.73944824 -354.29357422 843.73944824 -355.61328125 843.47363281 C-402.1345789 833.92582476 -443.84654968 812.27772694 -481.17822266 783.38671875 C-482.51292489 782.37075672 -483.86405867 781.37628433 -485.22412109 780.39453125 C-485.95840332 779.86214844 -486.69268555 779.32976563 -487.44921875 778.78125 C-488.12686279 778.29720703 -488.80450684 777.81316406 -489.50268555 777.31445312 C-489.99679932 776.88068359 -490.49091309 776.44691406 -491 776 C-491 775.34 -491 774.68 -491 774 C-491.59296875 773.73574219 -492.1859375 773.47148438 -492.796875 773.19921875 C-495.08029054 771.95629575 -496.47426723 770.69598354 -498.25 768.8125 C-500.63811945 766.28842325 -503.1438688 763.99614776 -505.77734375 761.734375 C-509.86671168 758.18010422 -513.62187284 754.40065218 -517.3125 750.4375 C-517.96057617 749.74277588 -518.60865234 749.04805176 -519.27636719 748.33227539 C-524.75997237 742.38493323 -529.84432894 736.21026182 -534.69384766 729.73876953 C-536.01496411 727.98007956 -537.35615944 726.23806244 -538.69921875 724.49609375 C-573.68871622 678.57081517 -595.48190986 619.82864285 -597 562 C-597.02723145 560.97616211 -597.05446289 559.95232422 -597.08251953 558.89746094 C-598.68855416 486.51479317 -576.02844144 418.5877561 -531 362 C-529.84757813 360.50533203 -529.84757813 360.50533203 -528.671875 358.98046875 C-527.59679687 357.59794922 -527.59679687 357.59794922 -526.5 356.1875 C-525.8709375 355.37667969 -525.241875 354.56585938 -524.59375 353.73046875 C-524.0678125 353.15941406 -523.541875 352.58835937 -523 352 C-522.34 352 -521.68 352 -521 352 C-520.773125 351.443125 -520.54625 350.88625 -520.3125 350.3125 C-518.62622733 347.34144815 -516.469646 345.35477875 -514 343 C-511.54982283 340.56591595 -509.11588379 338.11944336 -506.7109375 335.640625 C-501.67731532 330.48915883 -496.48143041 325.77374871 -490.8359375 321.30078125 C-488.58595797 319.47538463 -486.44871583 317.6039843 -484.30078125 315.6640625 C-479.76128666 311.67223528 -474.8655559 308.36576536 -469.8125 305.0625 C-468.42647583 304.14791016 -468.42647583 304.14791016 -467.01245117 303.21484375 C-460.09122927 298.66642212 -453.09556493 294.27150984 -446 290 C-445.25105469 289.51789063 -444.50210938 289.03578125 -443.73046875 288.5390625 C-408.40264804 266.14209035 -365.09284519 255.59567187 -324 251 C-323.36131109 250.91923125 -322.72262219 250.83846251 -322.06457907 250.75524622 C-316.80565221 250.11616678 -311.65725358 249.85913064 -306.36289978 249.87974548 C-305.54258304 249.87889106 -304.72226629 249.87803663 -303.87709147 249.87715632 C-301.15493585 249.8755219 -298.4328432 249.88098919 -295.71069336 249.88647461 C-293.74879966 249.88675695 -291.78690585 249.88659784 -289.82501221 249.8860321 C-284.51785386 249.88574595 -279.21071825 249.89161326 -273.90356517 249.89860606 C-268.35022647 249.90486991 -262.79688722 249.9054458 -257.24354553 249.90663147 C-246.73592275 249.90973585 -236.22831041 249.9179372 -225.72069222 249.92798096 C-213.7545699 249.93916983 -201.78844707 249.94465954 -189.82232082 249.94967639 C-165.21487476 249.96012056 -140.60743797 249.9777027 -116 250 C-116.00368717 249.03993923 -116.00737434 248.07987846 -116.01117325 247.09072495 C-116.09990748 223.74783087 -116.16567256 200.40495862 -116.20724869 177.06193161 C-116.22788817 165.77348594 -116.25603528 154.48515158 -116.30175781 143.19677734 C-116.3415831 133.35968969 -116.36742272 123.52268263 -116.37635398 113.6855166 C-116.38157602 108.47509554 -116.39387853 103.26490507 -116.42292023 98.0545578 C-116.45002124 93.15278598 -116.45845576 88.25134028 -116.45243073 83.34950066 C-116.45353335 81.54832374 -116.46151881 79.74713619 -116.4768219 77.94602394 C-116.49666708 75.49036619 -116.49195983 73.03594647 -116.48101807 70.58026123 C-116.49266943 69.86430526 -116.5043208 69.1483493 -116.51632524 68.4106977 C-116.47541083 65.02337575 -116.24047537 63.30380579 -114.10944748 60.61156082 C-111.91452157 58.93469679 -109.78580834 57.64377926 -107.31640625 56.40625 C-106.39988281 55.93968994 -105.48335937 55.47312988 -104.5390625 54.99243164 C-103.55679687 54.4999292 -102.57453125 54.00742676 -101.5625 53.5 C-93.77447686 49.51720987 -86.07692971 45.43436377 -78.5 41.0625 C-77.64583496 40.56999756 -76.79166992 40.07749512 -75.91162109 39.57006836 C-74.16542824 38.56177017 -72.41966244 37.55273206 -70.67431641 36.54296875 C-56.98125744 28.64264625 -43.17172382 20.96994236 -29.25170898 13.47753906 C-23.15233685 10.18814965 -17.11875367 6.82864803 -11.171875 3.26953125 C-10.45515625 2.85058594 -9.7384375 2.43164062 -9 2 C-8.34515625 1.61199219 -7.6903125 1.22398438 -7.015625 0.82421875 C-4.57208051 -0.17498258 -2.61787214 -0.05680492 0 0 Z M-404.23193359 398.64306641 C-406.00094474 400.00072506 -407.81098317 401.27427417 -409.64453125 402.54296875 C-412.7635416 404.74773367 -415.35980291 407.23038149 -418 410 C-418.85078125 410.82757813 -419.7015625 411.65515625 -420.578125 412.5078125 C-426.867138 418.66810301 -432.57830934 425.04736431 -438 432 C-438.71671875 432.88816406 -439.4334375 433.77632813 -440.171875 434.69140625 C-469.46165709 472.03068519 -483.14071589 521.25527106 -477.75 568.25 C-473.18807146 605.23430444 -460.03438216 638.56136159 -437 668 C-435.824375 669.51207031 -435.824375 669.51207031 -434.625 671.0546875 C-429.84338615 677.04830764 -424.83893493 683.00048912 -419 688 C-418.34 688 -417.68 688 -417 688 C-417 688.66 -417 689.32 -417 690 C-415.41005885 691.45917963 -413.75012428 692.84249355 -412.0625 694.1875 C-410.54462891 695.39792969 -410.54462891 695.39792969 -408.99609375 696.6328125 C-408.00738281 697.41398437 -407.01867187 698.19515625 -406 699 C-405.24847656 699.61617187 -404.49695313 700.23234375 -403.72265625 700.8671875 C-398.07209328 705.43393671 -392.05222843 709.25131438 -385.79638672 712.93652344 C-384.59016905 713.65061479 -383.38868807 714.37276325 -382.19189453 715.10253906 C-356.17153112 730.9613891 -325.5078527 739.50733019 -295.1484375 740.56640625 C-293.99232971 740.6076059 -292.83622192 740.64880554 -291.64508057 740.69125366 C-277.25436604 741.15266587 -262.86153026 741.1514162 -248.46484375 741.13037109 C-244.52674011 741.12465452 -240.58870374 741.12808278 -236.65060234 741.13380432 C-222.69742419 741.1510814 -208.7482885 741.15517046 -194.8046875 740.5703125 C-193.91714783 740.53366486 -193.02960815 740.49701721 -192.11517334 740.45925903 C-169.84077034 739.36417571 -149.92802548 731.89776076 -134.35742188 715.57714844 C-119.6507396 698.4898881 -115.825569 674.99233403 -115.87974548 653.26280212 C-115.87889106 652.00146173 -115.87803663 650.74012133 -115.87715632 649.44055849 C-115.87493205 645.96059784 -115.87890417 642.48066826 -115.88393438 639.00071156 C-115.88826853 635.24009845 -115.88679035 631.47948698 -115.8860321 627.71887207 C-115.88550875 621.21033758 -115.88863589 614.70181314 -115.89426994 608.19328117 C-115.90241043 598.78313399 -115.90500278 589.37299166 -115.90625793 579.96284134 C-115.90844445 564.69405619 -115.91509368 549.42527639 -115.92456055 534.15649414 C-115.93374502 519.32771837 -115.94082079 504.49894406 -115.94506836 489.67016602 C-115.94533108 488.75552288 -115.94559381 487.84087975 -115.94586449 486.89852016 C-115.94716957 482.30984601 -115.94843326 477.72117184 -115.94967639 473.13249767 C-115.96003654 435.08832803 -115.97764396 397.04416437 -116 359 C-139.41117592 358.92956577 -162.82233409 358.87684469 -186.23359489 358.84456348 C-197.10661256 358.82916883 -207.97956396 358.80822297 -218.85253906 358.77368164 C-228.341916 358.7435504 -237.83124489 358.7243714 -247.32066834 358.71773452 C-252.33389438 358.71386195 -257.34698312 358.70492028 -262.36016464 358.68280983 C-314.63586923 358.46157268 -361.93652994 365.31414931 -404.23193359 398.64306641 Z " transform="translate(630,25)"/>
<path d="M0 0 C0.90436249 -0.00085442 1.80872499 -0.00170885 2.7404924 -0.00258917 C5.75906795 -0.00423118 8.77758744 0.00125643 11.79615784 0.00672913 C13.96465046 0.0070113 16.13314318 0.00685267 18.30163574 0.00628662 C24.18120738 0.00599983 30.0607586 0.01187759 35.9403255 0.01886058 C42.08758614 0.02511366 48.23484726 0.02569947 54.3821106 0.02688599 C66.01956884 0.02999353 77.65701769 0.03819916 89.2944718 0.04823548 C102.54468308 0.0594145 115.79489481 0.06491158 129.04510963 0.06993091 C156.29880083 0.08038224 183.55248369 0.09797054 210.8061676 0.12025452 C212.86717224 3.76487732 212.86717224 3.76487732 212.31813049 6.96327209 C211.80367371 8.59752136 211.80367371 8.59752136 211.27882385 10.26478577 C210.89790588 11.50164124 210.51698792 12.7384967 210.12452698 14.01283264 C209.70637368 15.31962263 209.28775524 16.62626387 208.8686676 17.93275452 C208.28976529 19.79330134 207.71087447 21.65385191 207.13287354 23.51467896 C206.50284874 25.535606 205.86620567 27.55437872 205.22926331 29.57313538 C203.61084041 34.72154752 202.04469197 39.8855847 200.4780426 45.04994202 C197.01226969 56.46157831 193.51660787 67.86364487 189.97926331 79.25331116 C189.31078115 81.40977466 188.64484754 83.56702954 187.98121643 85.72499084 C187.0056064 88.89637259 186.02202945 92.06518224 185.03663635 95.23353577 C184.74081161 96.20100235 184.44498688 97.16846893 184.14019775 98.16525269 C183.86263138 99.05186081 183.585065 99.93846893 183.29908752 100.85194397 C183.05816879 101.63084488 182.81725006 102.40974579 182.56903076 103.21224976 C181.8061676 105.12025452 181.8061676 105.12025452 179.8061676 107.12025452 C177.80609989 107.38196754 177.80609989 107.38196754 175.29934692 107.39872742 C173.87388802 107.41547264 173.87388802 107.41547264 172.41963196 107.43255615 C171.37228882 107.43471634 170.32494568 107.43687653 169.24586487 107.43910217 C168.14421494 107.4491478 167.042565 107.45919342 165.90753174 107.46954346 C162.22921775 107.50064428 158.5509789 107.51752467 154.87257385 107.53431702 C152.28800866 107.5530602 149.70344939 107.57263587 147.11889648 107.59300232 C141.66188966 107.63405055 136.20489927 107.669036 130.74781799 107.69837952 C123.21653777 107.73888369 115.68538822 107.791828 108.15420842 107.84768724 C64.93377367 108.16493104 64.93377367 108.16493104 46.89942932 108.07240295 C45.41292389 108.06620847 45.41292389 108.06620847 43.89638805 108.05988884 C39.39897625 108.04090062 34.90211756 108.01323347 30.40493774 107.96366882 C16.98802122 107.86331536 3.10364824 108.23452746 -9.6313324 112.87025452 C-10.75450867 113.26386169 -10.75450867 113.26386169 -11.90037537 113.66542053 C-24.54439985 118.26187595 -34.80315552 125.81332223 -42.1938324 137.12025452 C-42.7094574 137.8975592 -43.2250824 138.67486389 -43.7563324 139.47572327 C-51.15308382 151.698855 -53.23258293 166.82601415 -53.39915466 180.91322327 C-53.40905426 181.64590927 -53.41895386 182.37859528 -53.42915344 183.13348389 C-53.46042259 185.52487599 -53.48538707 187.91628787 -53.51023865 190.30775452 C-53.53083816 191.97784403 -53.55183536 193.64792867 -53.57321167 195.31800842 C-53.62812311 199.69087256 -53.67766736 204.0637813 -53.72605896 208.4367218 C-53.77650137 212.9080955 -53.83206814 217.37940527 -53.88719177 221.85072327 C-53.99439443 230.60717946 -54.0959218 239.36368951 -54.1938324 248.12025452 C-53.20008386 248.11933272 -52.20633532 248.11841093 -51.18247318 248.1174612 C-27.03945733 248.0952944 -2.89644279 248.07884435 21.24658108 248.06844234 C32.92180174 248.06327874 44.5970157 248.05623483 56.27223206 248.04481506 C66.44439433 248.03487018 76.61655176 248.02840156 86.78871876 248.02616602 C92.1783601 248.02485858 97.56798754 248.02177063 102.95762444 248.01452446 C108.02428194 248.00776733 113.09091975 248.00563693 118.15758133 248.00714684 C120.02289118 248.00687037 121.88820165 248.00486343 123.75350761 248.00104904 C126.28865868 247.99611658 128.82373411 247.99725456 131.35888672 248 C132.48094699 247.99563074 132.48094699 247.99563074 133.62567514 247.99117321 C138.69204639 248.00613331 138.69204639 248.00613331 139.8061676 249.12025452 C139.29887277 255.20779248 137.50626005 260.81421607 135.6811676 266.62025452 C135.03775204 268.69832181 134.39452781 270.77644836 133.7514801 272.85462952 C133.26083069 274.43147522 133.26083069 274.43147522 132.76026917 276.04017639 C131.61247723 279.74553542 130.49071736 283.45837999 129.37086487 287.17225647 C123.21108374 307.57133985 116.86789606 327.92934178 110.2436676 348.18275452 C110.01671204 348.8895636 109.78975647 349.59637268 109.55592346 350.32460022 C108.60871243 353.17726877 107.96389178 354.96253034 105.8061676 357.12025452 C103.06129265 357.36635017 103.06129265 357.36635017 99.49143982 357.36076355 C98.83636259 357.3624724 98.18128536 357.36418125 97.50635731 357.36594188 C95.30133412 357.36924806 93.09661219 357.35821484 90.89161682 357.3473053 C89.31498726 357.34674143 87.73835716 357.34705727 86.16172791 357.34819031 C81.87268124 357.34876576 77.58374571 357.33698038 73.29472494 357.32304239 C68.81572624 357.31056705 64.33672519 357.30936706 59.85771179 357.30699158 C51.37208797 357.30076738 42.88651549 357.2843439 34.40091431 357.2642926 C24.74205044 357.24196277 15.08318415 357.23094752 5.42430091 357.22090173 C-14.44843888 357.19997846 -34.32113241 357.16478429 -54.1938324 357.12025452 C-54.18830164 358.93411746 -54.18830164 358.93411746 -54.18265915 360.7846241 C-54.09562896 389.62706288 -54.02987245 418.46949939 -53.98957108 447.3120395 C-53.98456952 450.8784825 -53.97939211 454.44492521 -53.97410583 458.0113678 C-53.97305659 458.72124603 -53.97200735 459.43112426 -53.97092631 460.16251396 C-53.95362143 471.58804239 -53.9221399 483.01348857 -53.88522121 494.43896855 C-53.84753312 506.20253737 -53.82553843 517.96606374 -53.81747842 529.72969043 C-53.81252936 536.32030684 -53.8003289 542.91077187 -53.77091217 549.50133133 C-53.540992 603.14097435 -53.540992 603.14097435 -58.1938324 627.12025452 C-58.42243706 628.31149555 -58.65104172 629.50273659 -58.88657379 630.73007584 C-68.60132188 680.54737869 -90.23643856 727.37607456 -124.94773865 764.68666077 C-126.82839153 766.72430728 -128.61027836 768.80118057 -130.3813324 770.93275452 C-139.68485148 781.59349285 -150.72808281 790.88851789 -162.1938324 799.12025452 C-162.80307556 799.55934143 -163.41231873 799.99842834 -164.0400238 800.45082092 C-200.72224466 826.70296121 -244.81923296 845.02761484 -290.1938324 848.12025452 C-290.8538324 847.79025452 -291.5138324 847.46025452 -292.1938324 847.12025452 C-292.1938324 845.47025452 -292.1938324 843.82025452 -292.1938324 842.12025452 C-291.20125427 841.64716858 -290.20867615 841.17408264 -289.1860199 840.68666077 C-270.14951837 831.4775054 -253.5000007 819.72969823 -238.1938324 805.12025452 C-237.46293396 804.43060608 -236.73203552 803.74095764 -235.97898865 803.03041077 C-222.79187102 790.26110281 -212.55827884 774.80724251 -203.1938324 759.12025452 C-202.8432074 758.53856506 -202.4925824 757.95687561 -202.1313324 757.3575592 C-184.50068472 727.69192839 -176.44706865 692.38185652 -172.4649868 658.42521822 C-172.29148647 656.95036865 -172.11354576 655.47603039 -171.9298954 654.00241029 C-169.43008691 633.3222607 -169.89668751 612.47668859 -169.90647626 591.68506491 C-169.90689994 586.0728902 -169.89575826 580.4607364 -169.88601685 574.84857178 C-169.87063817 565.14546412 -169.86216894 555.44237087 -169.85830688 545.73925209 C-169.85252973 531.68879112 -169.83389618 517.63836865 -169.81186634 503.5879248 C-169.77623139 480.75731675 -169.74785708 457.92670897 -169.72557068 435.09608459 C-169.72490313 434.41458884 -169.72423557 433.73309308 -169.72354779 433.03094593 C-169.71272398 421.97236705 -169.70227609 410.91378781 -169.69187915 399.85520852 C-169.68212867 389.48790922 -169.6722425 379.12061007 -169.66209412 368.75331116 C-169.6610968 367.73095996 -169.6610968 367.73095996 -169.66007934 366.68795521 C-169.6371601 343.24523533 -169.60647173 319.80253474 -169.56970167 296.35983199 C-169.54810206 282.35100461 -169.53343439 268.34220296 -169.52786291 254.33335986 C-169.52360195 244.73257218 -169.51232812 235.13180904 -169.49563897 225.53103498 C-169.48627708 220.00143236 -169.4801036 214.47187557 -169.48270226 208.94226456 C-169.48503589 203.86762082 -169.47806977 198.79307292 -169.46412343 193.7184486 C-169.46069923 191.89578073 -169.46053007 190.07310273 -169.46419603 188.25043533 C-169.49667758 170.33349609 -168.13722053 152.63304874 -164.1938324 135.12025452 C-163.94874939 134.02511536 -163.94874939 134.02511536 -163.69871521 132.90785217 C-160.76251938 120.12915886 -156.46186717 108.11720764 -151.1938324 96.12025452 C-150.76481628 95.14016418 -150.76481628 95.14016418 -150.32713318 94.14027405 C-143.8683285 79.68228031 -134.36563212 67.14513459 -124.1938324 55.12025452 C-123.49129333 54.1959967 -122.78875427 53.27173889 -122.06492615 52.31947327 C-121.44746521 51.59373108 -120.83000427 50.86798889 -120.1938324 50.12025452 C-119.5338324 50.12025452 -118.8738324 50.12025452 -118.1938324 50.12025452 C-118.1938324 49.46025452 -118.1938324 48.80025452 -118.1938324 48.12025452 C-115.76945117 45.53776147 -112.92619373 43.36713021 -110.1938324 41.12025452 C-109.42982117 40.48990295 -109.42982117 40.48990295 -108.65037537 39.84681702 C-85.46597833 20.83217672 -58.87265101 8.59637114 -29.3188324 3.43275452 C-27.56312927 3.11467834 -27.56312927 3.11467834 -25.7719574 2.79017639 C-22.58152084 2.2168383 -19.39162868 1.65101437 -16.1938324 1.12025452 C-15.16520049 0.94723596 -14.13656858 0.7742174 -13.07676601 0.59595585 C-8.68270318 0.05763566 -4.42059103 -0.01540952 0 0 Z " transform="translate(841.1938323974609,26.879745483398438)"/>
<path d="" transform="translate(0,0)"/>
<path d="" transform="translate(0,0)"/>
<path d="" transform="translate(0,0)"/>
<path d="" transform="translate(0,0)"/>
</svg>
