<svg width="8" height="8" viewBox="0 0 8 8" fill="none" xmlns="http://www.w3.org/2000/svg">
<mask id="mask0_98167_2745" style="mask-type:alpha" maskUnits="userSpaceOnUse" x="0" y="0" width="8" height="8">
<rect y="4.80577e-09" width="8" height="8" fill="#D9D9D9"/>
</mask>
<g mask="url(#mask0_98167_2745)">
<path d="M3.9914 7.19687C3.55095 7.19687 3.13628 7.11354 2.7474 6.94687C2.35851 6.78021 2.01823 6.55104 1.72656 6.25937C1.4349 5.96771 1.20573 5.62754 1.03906 5.23887C0.872396 4.85021 0.789063 4.43493 0.789063 3.99304C0.789063 3.55115 0.872396 3.13715 1.03906 2.75104C1.20573 2.36493 1.4349 2.02604 1.72656 1.73437C2.01823 1.44271 2.3584 1.21354 2.74706 1.04687C3.13573 0.880208 3.55101 0.796875 3.9929 0.796875C4.43478 0.796875 4.84878 0.880208 5.2349 1.04687C5.62101 1.21354 5.9599 1.44271 6.25156 1.73437C6.54323 2.02604 6.7724 2.36554 6.93906 2.75287C7.10573 3.14026 7.18906 3.55415 7.18906 3.99454C7.18906 4.43499 7.10573 4.84965 6.93906 5.23854C6.7724 5.62743 6.54323 5.96771 6.25156 6.25937C5.9599 6.55104 5.6204 6.78021 5.23306 6.94687C4.84567 7.11354 4.43178 7.19687 3.9914 7.19687ZM3.98906 6.59687C4.71128 6.59687 5.32517 6.3441 5.83073 5.83854C6.33628 5.33299 6.58906 4.7191 6.58906 3.99687C6.58906 3.27465 6.33628 2.66076 5.83073 2.15521C5.32517 1.64965 4.71128 1.39687 3.98906 1.39687C3.26684 1.39687 2.65295 1.64965 2.1474 2.15521C1.64184 2.66076 1.38906 3.27465 1.38906 3.99687C1.38906 4.7191 1.64184 5.33299 2.1474 5.83854C2.65295 6.3441 3.26684 6.59687 3.98906 6.59687ZM3.98906 6.59687C3.26684 6.59687 2.65295 6.3441 2.1474 5.83854C1.64184 5.33299 1.38906 4.7191 1.38906 3.99687C1.38906 3.27465 1.64184 2.66076 2.1474 2.15521C2.65295 1.64965 3.26684 1.39687 3.98906 1.39687C4.71128 1.39687 5.32517 1.64965 5.83073 2.15521C6.33628 2.66076 6.58906 3.27465 6.58906 3.99687C6.58906 4.7191 6.33628 5.33299 5.83073 5.83854C5.32517 6.3441 4.71128 6.59687 3.98906 6.59687Z" fill="#6AD7BF"/>
</g>
</svg>
