<svg width="48" height="48" viewBox="0 0 48 48" fill="none" xmlns="http://www.w3.org/2000/svg">
<mask id="mask0_3296_3468" style="mask-type:alpha" maskUnits="userSpaceOnUse" x="0" y="0" width="48" height="48">
<rect width="48" height="48" fill="#D9D9D9"/>
</mask>
<g mask="url(#mask0_3296_3468)">
<path d="M24 26.1075L13.854 36.254C13.577 36.5307 13.2289 36.6724 12.8095 36.679C12.3905 36.6854 12.036 36.5437 11.746 36.254C11.4564 35.964 11.3115 35.6127 11.3115 35.2C11.3115 34.7874 11.4564 34.436 11.746 34.146L21.8925 24L11.746 13.854C11.4694 13.577 11.3277 13.2289 11.321 12.8095C11.3147 12.3905 11.4564 12.036 11.746 11.746C12.036 11.4564 12.3874 11.3115 12.8 11.3115C13.2127 11.3115 13.564 11.4564 13.854 11.746L24 21.8925L34.146 11.746C34.423 11.4694 34.7712 11.3277 35.1905 11.321C35.6095 11.3147 35.964 11.4564 36.254 11.746C36.5437 12.036 36.6885 12.3874 36.6885 12.8C36.6885 13.2127 36.5437 13.564 36.254 13.854L26.1075 24L36.254 34.146C36.5307 34.423 36.6724 34.7712 36.679 35.1905C36.6854 35.6095 36.5437 35.964 36.254 36.254C35.964 36.5437 35.6127 36.6885 35.2 36.6885C34.7874 36.6885 34.436 36.5437 34.146 36.254L24 26.1075Z" fill="#3DCFB6"/>
</g>
</svg>
